{"title":"Stay 2005 DVDrip English Klam","uid":6457413,"size":1476550242,"categoryP":"video","categoryS":"movies","magnet":"?xt=urn:btih:b5a87b4f3ea15b877c7d50015be35e7cd726448a&amp;dn=Stay+2005+DVDrip+English+Klam&amp;tr=udp%3A%2F%2Ftracker.openbittorrent.com%3A80&amp;tr=udp%3A%2F%2Fopen.demonii.com%3A1337&amp;tr=udp%3A%2F%2Ftracker.coppersurfer.tk%3A6969&amp;tr=udp%3A%2F%2Fexodus.desync.com%3A6969","seeders":2,"leechers":0,"uploader":"Klambake","files":-1,"time":1307629176,"description":"With: Ewan McGregor, Ryan Gosling and Naomi Watts\n\nHenry Letham (Ryan Gosling), een jongeman die levend uit een auto-ongeluk ontsnapt, wordt opgevangen door de psychiater Sam Foster (Ewan McGregor). Zijn trauma begint als een soort van paranoia...\n\nThis movie focuses on the attempts of a psychiatrist to prevent one of his patients from committing suicide while trying to maintain his own grip on reality.\n\n------------------ Dutch Friends ------------------\n\nYou can find my Friends at: http://www.Film-Test.nl \n                    \n------ They got my dutchs subs ---- and more ------\n\nGeneral:\n\nComplete name                    : Stay\\Stay.avi\nFormat                           : AVI\nFormat/Info                      : Audio Video Interleave\nFile size                        : 1.38 GiB\nDuration                         : 1h 38mn\nOverall bit rate                 : 1 989 Kbps\nWriting application              : VirtualDubMod 1.5.4.1 (build 2376/release)\nWriting library                  : VirtualDubMod build 2376/release\n\nVideo:\n\nFormat                           : MPEG-4 Visual\nFormat profile                   : Simple@L0\nFormat settings, BVOP            : No\nFormat settings, QPel            : No\nFormat settings, GMC             : No warppoints\nFormat settings, Matrix          : Default (H.263)\nCodec ID                         : XVID\nCodec ID/Hint                    : XviD\nDuration                         : 1h 38mn\nBit rate                         : 1 534 Kbps\nWidth                            : 720 pixels\nHeight                           : 304 pixels\nDisplay aspect ratio             : 2.35:1\nFrame rate                       : 23.976 fps\nColor space                      : YUV\nChroma subsampling               : 4:2:0\nBit depth                        : 8 bits\nScan type                        : Progressive\nBits/(Pixel*Frame)               : 0.292\nStream size                      : 1.06 GiB (77%)\nWriting library                  : XviD 1.2.1 \n\nAudio:\n\nFormat                           : AC-3\nFormat/Info                      : Audio Coding 3\nMode extension                   : CM (complete main)\nCodec ID                         : 2000\nDuration                         : 1h 38mn\nBit rate mode                    : Constant\nBit rate                         : 448 Kbps\nChannel(s)                       : 6 channels\nChannel positions                : Front: L C R, Side: L R, LFE\nSampling rate                    : 48.0 KHz\nBit depth                        : 16 bits\nStream size                      : 317 MiB (23%)\nAlignment                        : Split accross interleaves\nInterleave, duration             : 83 ms (2.00 video frames)\nInterleave, preload duration     : 500 ms\nLanguage                         : English\n\n\n","torrent":{"xt":"urn:btih:b5a87b4f3ea15b877c7d50015be35e7cd726448a","amp;dn":"Stay+2005+DVDrip+English+Klam","amp;tr":["udp%3A%2F%2Ftracker.openbittorrent.com%3A80","udp%3A%2F%2Fopen.demonii.com%3A1337","udp%3A%2F%2Ftracker.coppersurfer.tk%3A6969","udp%3A%2F%2Fexodus.desync.com%3A6969"],"infoHash":"b5a87b4f3ea15b877c7d50015be35e7cd726448a","infoHashBuffer":{"type":"Buffer","data":[181,168,123,79,62,161,91,135,124,125,80,1,91,227,94,124,215,38,68,138]},"announce":[],"urlList":[]}}